<?xml version="1.0" encoding="utf-8" standalone="no"?>
<!DOCTYPE svg PUBLIC "-//W3C//DTD SVG 1.1//EN"
  "http://www.w3.org/Graphics/SVG/1.1/DTD/svg11.dtd">
<svg xmlns:xlink="http://www.w3.org/1999/xlink" width="1072.495625pt" height="423.243576pt" viewBox="0 0 1072.495625 423.243576" xmlns="http://www.w3.org/2000/svg" version="1.1">
 <metadata>
  <rdf:RDF xmlns:dc="http://purl.org/dc/elements/1.1/" xmlns:cc="http://creativecommons.org/ns#" xmlns:rdf="http://www.w3.org/1999/02/22-rdf-syntax-ns#">
   <cc:Work>
    <dc:type rdf:resource="http://purl.org/dc/dcmitype/StillImage"/>
    <dc:date>2025-04-18T23:34:03.447984</dc:date>
    <dc:format>image/svg+xml</dc:format>
    <dc:creator>
     <cc:Agent>
      <dc:title>Matplotlib v3.10.1, https://matplotlib.org/</dc:title>
     </cc:Agent>
    </dc:creator>
   </cc:Work>
  </rdf:RDF>
 </metadata>
 <defs>
  <style type="text/css">*{stroke-linejoin: round; stroke-linecap: butt}</style>
 </defs>
 <g id="figure_1">
  <g id="patch_1">
   <path d="M 0 423.243576 
L 1072.495625 423.243576 
L 1072.495625 0 
L 0 0 
z
" style="fill: #ffffff"/>
  </g>
  <g id="axes_1">
   <g id="patch_2">
    <path d="M 46.965625 347.630219 
L 1065.295625 347.630219 
L 1065.295625 22.798125 
L 46.965625 22.798125 
z
" style="fill: #ffffff"/>
   </g>
   <g id="matplotlib.axis_1">
    <g id="xtick_1">
     <g id="line2d_1">
      <path d="M 93.253352 347.630219 
L 93.253352 22.798125 
" clip-path="url(#p991746381f)" style="fill: none; stroke: #b0b0b0; stroke-width: 0.8; stroke-linecap: square"/>
     </g>
     <g id="line2d_2">
      <defs>
       <path id="m0b01eab002" d="M 0 0 
L 0 3.5 
" style="stroke: #000000; stroke-width: 0.8"/>
      </defs>
      <g>
       <use xlink:href="#m0b01eab002" x="93.253352" y="347.630219" style="stroke: #000000; stroke-width: 0.8"/>
      </g>
     </g>
     <g id="text_1">
      <!-- Enero -->
      <g transform="translate(85.017216 380.377745) rotate(-45) scale(0.1 -0.1)">
       <defs>
        <path id="DejaVuSans-45" d="M 628 4666 
L 3578 4666 
L 3578 4134 
L 1259 4134 
L 1259 2753 
L 3481 2753 
L 3481 2222 
L 1259 2222 
L 1259 531 
L 3634 531 
L 3634 0 
L 628 0 
L 628 4666 
z
" transform="scale(0.015625)"/>
        <path id="DejaVuSans-6e" d="M 3513 2113 
L 3513 0 
L 2938 0 
L 2938 2094 
Q 2938 2591 2744 2837 
Q 2550 3084 2163 3084 
Q 1697 3084 1428 2787 
Q 1159 2491 1159 1978 
L 1159 0 
L 581 0 
L 581 3500 
L 1159 3500 
L 1159 2956 
Q 1366 3272 1645 3428 
Q 1925 3584 2291 3584 
Q 2894 3584 3203 3211 
Q 3513 2838 3513 2113 
z
" transform="scale(0.015625)"/>
        <path id="DejaVuSans-65" d="M 3597 1894 
L 3597 1613 
L 953 1613 
Q 991 1019 1311 708 
Q 1631 397 2203 397 
Q 2534 397 2845 478 
Q 3156 559 3463 722 
L 3463 178 
Q 3153 47 2828 -22 
Q 2503 -91 2169 -91 
Q 1331 -91 842 396 
Q 353 884 353 1716 
Q 353 2575 817 3079 
Q 1281 3584 2069 3584 
Q 2775 3584 3186 3129 
Q 3597 2675 3597 1894 
z
M 3022 2063 
Q 3016 2534 2758 2815 
Q 2500 3097 2075 3097 
Q 1594 3097 1305 2825 
Q 1016 2553 972 2059 
L 3022 2063 
z
" transform="scale(0.015625)"/>
        <path id="DejaVuSans-72" d="M 2631 2963 
Q 2534 3019 2420 3045 
Q 2306 3072 2169 3072 
Q 1681 3072 1420 2755 
Q 1159 2438 1159 1844 
L 1159 0 
L 581 0 
L 581 3500 
L 1159 3500 
L 1159 2956 
Q 1341 3275 1631 3429 
Q 1922 3584 2338 3584 
Q 2397 3584 2469 3576 
Q 2541 3569 2628 3553 
L 2631 2963 
z
" transform="scale(0.015625)"/>
        <path id="DejaVuSans-6f" d="M 1959 3097 
Q 1497 3097 1228 2736 
Q 959 2375 959 1747 
Q 959 1119 1226 758 
Q 1494 397 1959 397 
Q 2419 397 2687 759 
Q 2956 1122 2956 1747 
Q 2956 2369 2687 2733 
Q 2419 3097 1959 3097 
z
M 1959 3584 
Q 2709 3584 3137 3096 
Q 3566 2609 3566 1747 
Q 3566 888 3137 398 
Q 2709 -91 1959 -91 
Q 1206 -91 779 398 
Q 353 888 353 1747 
Q 353 2609 779 3096 
Q 1206 3584 1959 3584 
z
" transform="scale(0.015625)"/>
       </defs>
       <use xlink:href="#DejaVuSans-45"/>
       <use xlink:href="#DejaVuSans-6e" transform="translate(63.183594 0)"/>
       <use xlink:href="#DejaVuSans-65" transform="translate(126.5625 0)"/>
       <use xlink:href="#DejaVuSans-72" transform="translate(188.085938 0)"/>
       <use xlink:href="#DejaVuSans-6f" transform="translate(226.949219 0)"/>
      </g>
     </g>
    </g>
    <g id="xtick_2">
     <g id="line2d_3">
      <path d="M 261.572361 347.630219 
L 261.572361 22.798125 
" clip-path="url(#p991746381f)" style="fill: none; stroke: #b0b0b0; stroke-width: 0.8; stroke-linecap: square"/>
     </g>
     <g id="line2d_4">
      <g>
       <use xlink:href="#m0b01eab002" x="261.572361" y="347.630219" style="stroke: #000000; stroke-width: 0.8"/>
      </g>
     </g>
     <g id="text_2">
      <!-- Marzo -->
      <g transform="translate(252.834068 381.382057) rotate(-45) scale(0.1 -0.1)">
       <defs>
        <path id="DejaVuSans-4d" d="M 628 4666 
L 1569 4666 
L 2759 1491 
L 3956 4666 
L 4897 4666 
L 4897 0 
L 4281 0 
L 4281 4097 
L 3078 897 
L 2444 897 
L 1241 4097 
L 1241 0 
L 628 0 
L 628 4666 
z
" transform="scale(0.015625)"/>
        <path id="DejaVuSans-61" d="M 2194 1759 
Q 1497 1759 1228 1600 
Q 959 1441 959 1056 
Q 959 750 1161 570 
Q 1363 391 1709 391 
Q 2188 391 2477 730 
Q 2766 1069 2766 1631 
L 2766 1759 
L 2194 1759 
z
M 3341 1997 
L 3341 0 
L 2766 0 
L 2766 531 
Q 2569 213 2275 61 
Q 1981 -91 1556 -91 
Q 1019 -91 701 211 
Q 384 513 384 1019 
Q 384 1609 779 1909 
Q 1175 2209 1959 2209 
L 2766 2209 
L 2766 2266 
Q 2766 2663 2505 2880 
Q 2244 3097 1772 3097 
Q 1472 3097 1187 3025 
Q 903 2953 641 2809 
L 641 3341 
Q 956 3463 1253 3523 
Q 1550 3584 1831 3584 
Q 2591 3584 2966 3190 
Q 3341 2797 3341 1997 
z
" transform="scale(0.015625)"/>
        <path id="DejaVuSans-7a" d="M 353 3500 
L 3084 3500 
L 3084 2975 
L 922 459 
L 3084 459 
L 3084 0 
L 275 0 
L 275 525 
L 2438 3041 
L 353 3041 
L 353 3500 
z
" transform="scale(0.015625)"/>
       </defs>
       <use xlink:href="#DejaVuSans-4d"/>
       <use xlink:href="#DejaVuSans-61" transform="translate(86.279297 0)"/>
       <use xlink:href="#DejaVuSans-72" transform="translate(147.558594 0)"/>
       <use xlink:href="#DejaVuSans-7a" transform="translate(188.671875 0)"/>
       <use xlink:href="#DejaVuSans-6f" transform="translate(241.162109 0)"/>
      </g>
     </g>
    </g>
    <g id="xtick_3">
     <g id="line2d_5">
      <path d="M 429.891369 347.630219 
L 429.891369 22.798125 
" clip-path="url(#p991746381f)" style="fill: none; stroke: #b0b0b0; stroke-width: 0.8; stroke-linecap: square"/>
     </g>
     <g id="line2d_6">
      <g>
       <use xlink:href="#m0b01eab002" x="429.891369" y="347.630219" style="stroke: #000000; stroke-width: 0.8"/>
      </g>
     </g>
     <g id="text_3">
      <!-- Mayo -->
      <g transform="translate(422.36952 378.949168) rotate(-45) scale(0.1 -0.1)">
       <defs>
        <path id="DejaVuSans-79" d="M 2059 -325 
Q 1816 -950 1584 -1140 
Q 1353 -1331 966 -1331 
L 506 -1331 
L 506 -850 
L 844 -850 
Q 1081 -850 1212 -737 
Q 1344 -625 1503 -206 
L 1606 56 
L 191 3500 
L 800 3500 
L 1894 763 
L 2988 3500 
L 3597 3500 
L 2059 -325 
z
" transform="scale(0.015625)"/>
       </defs>
       <use xlink:href="#DejaVuSans-4d"/>
       <use xlink:href="#DejaVuSans-61" transform="translate(86.279297 0)"/>
       <use xlink:href="#DejaVuSans-79" transform="translate(147.558594 0)"/>
       <use xlink:href="#DejaVuSans-6f" transform="translate(206.738281 0)"/>
      </g>
     </g>
    </g>
    <g id="xtick_4">
     <g id="line2d_7">
      <path d="M 598.210377 347.630219 
L 598.210377 22.798125 
" clip-path="url(#p991746381f)" style="fill: none; stroke: #b0b0b0; stroke-width: 0.8; stroke-linecap: square"/>
     </g>
     <g id="line2d_8">
      <g>
       <use xlink:href="#m0b01eab002" x="598.210377" y="347.630219" style="stroke: #000000; stroke-width: 0.8"/>
      </g>
     </g>
     <g id="text_4">
      <!-- Julio -->
      <g transform="translate(592.750187 374.825852) rotate(-45) scale(0.1 -0.1)">
       <defs>
        <path id="DejaVuSans-4a" d="M 628 4666 
L 1259 4666 
L 1259 325 
Q 1259 -519 939 -900 
Q 619 -1281 -91 -1281 
L -331 -1281 
L -331 -750 
L -134 -750 
Q 284 -750 456 -515 
Q 628 -281 628 325 
L 628 4666 
z
" transform="scale(0.015625)"/>
        <path id="DejaVuSans-75" d="M 544 1381 
L 544 3500 
L 1119 3500 
L 1119 1403 
Q 1119 906 1312 657 
Q 1506 409 1894 409 
Q 2359 409 2629 706 
Q 2900 1003 2900 1516 
L 2900 3500 
L 3475 3500 
L 3475 0 
L 2900 0 
L 2900 538 
Q 2691 219 2414 64 
Q 2138 -91 1772 -91 
Q 1169 -91 856 284 
Q 544 659 544 1381 
z
M 1991 3584 
L 1991 3584 
z
" transform="scale(0.015625)"/>
        <path id="DejaVuSans-6c" d="M 603 4863 
L 1178 4863 
L 1178 0 
L 603 0 
L 603 4863 
z
" transform="scale(0.015625)"/>
        <path id="DejaVuSans-69" d="M 603 3500 
L 1178 3500 
L 1178 0 
L 603 0 
L 603 3500 
z
M 603 4863 
L 1178 4863 
L 1178 4134 
L 603 4134 
L 603 4863 
z
" transform="scale(0.015625)"/>
       </defs>
       <use xlink:href="#DejaVuSans-4a"/>
       <use xlink:href="#DejaVuSans-75" transform="translate(29.492188 0)"/>
       <use xlink:href="#DejaVuSans-6c" transform="translate(92.871094 0)"/>
       <use xlink:href="#DejaVuSans-69" transform="translate(120.654297 0)"/>
       <use xlink:href="#DejaVuSans-6f" transform="translate(148.4375 0)"/>
      </g>
     </g>
    </g>
    <g id="xtick_5">
     <g id="line2d_9">
      <path d="M 766.529385 347.630219 
L 766.529385 22.798125 
" clip-path="url(#p991746381f)" style="fill: none; stroke: #b0b0b0; stroke-width: 0.8; stroke-linecap: square"/>
     </g>
     <g id="line2d_10">
      <g>
       <use xlink:href="#m0b01eab002" x="766.529385" y="347.630219" style="stroke: #000000; stroke-width: 0.8"/>
      </g>
     </g>
     <g id="text_5">
      <!-- Septiembre -->
      <g transform="translate(748.034676 400.89489) rotate(-45) scale(0.1 -0.1)">
       <defs>
        <path id="DejaVuSans-53" d="M 3425 4513 
L 3425 3897 
Q 3066 4069 2747 4153 
Q 2428 4238 2131 4238 
Q 1616 4238 1336 4038 
Q 1056 3838 1056 3469 
Q 1056 3159 1242 3001 
Q 1428 2844 1947 2747 
L 2328 2669 
Q 3034 2534 3370 2195 
Q 3706 1856 3706 1288 
Q 3706 609 3251 259 
Q 2797 -91 1919 -91 
Q 1588 -91 1214 -16 
Q 841 59 441 206 
L 441 856 
Q 825 641 1194 531 
Q 1563 422 1919 422 
Q 2459 422 2753 634 
Q 3047 847 3047 1241 
Q 3047 1584 2836 1778 
Q 2625 1972 2144 2069 
L 1759 2144 
Q 1053 2284 737 2584 
Q 422 2884 422 3419 
Q 422 4038 858 4394 
Q 1294 4750 2059 4750 
Q 2388 4750 2728 4690 
Q 3069 4631 3425 4513 
z
" transform="scale(0.015625)"/>
        <path id="DejaVuSans-70" d="M 1159 525 
L 1159 -1331 
L 581 -1331 
L 581 3500 
L 1159 3500 
L 1159 2969 
Q 1341 3281 1617 3432 
Q 1894 3584 2278 3584 
Q 2916 3584 3314 3078 
Q 3713 2572 3713 1747 
Q 3713 922 3314 415 
Q 2916 -91 2278 -91 
Q 1894 -91 1617 61 
Q 1341 213 1159 525 
z
M 3116 1747 
Q 3116 2381 2855 2742 
Q 2594 3103 2138 3103 
Q 1681 3103 1420 2742 
Q 1159 2381 1159 1747 
Q 1159 1113 1420 752 
Q 1681 391 2138 391 
Q 2594 391 2855 752 
Q 3116 1113 3116 1747 
z
" transform="scale(0.015625)"/>
        <path id="DejaVuSans-74" d="M 1172 4494 
L 1172 3500 
L 2356 3500 
L 2356 3053 
L 1172 3053 
L 1172 1153 
Q 1172 725 1289 603 
Q 1406 481 1766 481 
L 2356 481 
L 2356 0 
L 1766 0 
Q 1100 0 847 248 
Q 594 497 594 1153 
L 594 3053 
L 172 3053 
L 172 3500 
L 594 3500 
L 594 4494 
L 1172 4494 
z
" transform="scale(0.015625)"/>
        <path id="DejaVuSans-6d" d="M 3328 2828 
Q 3544 3216 3844 3400 
Q 4144 3584 4550 3584 
Q 5097 3584 5394 3201 
Q 5691 2819 5691 2113 
L 5691 0 
L 5113 0 
L 5113 2094 
Q 5113 2597 4934 2840 
Q 4756 3084 4391 3084 
Q 3944 3084 3684 2787 
Q 3425 2491 3425 1978 
L 3425 0 
L 2847 0 
L 2847 2094 
Q 2847 2600 2669 2842 
Q 2491 3084 2119 3084 
Q 1678 3084 1418 2786 
Q 1159 2488 1159 1978 
L 1159 0 
L 581 0 
L 581 3500 
L 1159 3500 
L 1159 2956 
Q 1356 3278 1631 3431 
Q 1906 3584 2284 3584 
Q 2666 3584 2933 3390 
Q 3200 3197 3328 2828 
z
" transform="scale(0.015625)"/>
        <path id="DejaVuSans-62" d="M 3116 1747 
Q 3116 2381 2855 2742 
Q 2594 3103 2138 3103 
Q 1681 3103 1420 2742 
Q 1159 2381 1159 1747 
Q 1159 1113 1420 752 
Q 1681 391 2138 391 
Q 2594 391 2855 752 
Q 3116 1113 3116 1747 
z
M 1159 2969 
Q 1341 3281 1617 3432 
Q 1894 3584 2278 3584 
Q 2916 3584 3314 3078 
Q 3713 2572 3713 1747 
Q 3713 922 3314 415 
Q 2916 -91 2278 -91 
Q 1894 -91 1617 61 
Q 1341 213 1159 525 
L 1159 0 
L 581 0 
L 581 4863 
L 1159 4863 
L 1159 2969 
z
" transform="scale(0.015625)"/>
       </defs>
       <use xlink:href="#DejaVuSans-53"/>
       <use xlink:href="#DejaVuSans-65" transform="translate(63.476562 0)"/>
       <use xlink:href="#DejaVuSans-70" transform="translate(125 0)"/>
       <use xlink:href="#DejaVuSans-74" transform="translate(188.476562 0)"/>
       <use xlink:href="#DejaVuSans-69" transform="translate(227.685547 0)"/>
       <use xlink:href="#DejaVuSans-65" transform="translate(255.46875 0)"/>
       <use xlink:href="#DejaVuSans-6d" transform="translate(316.992188 0)"/>
       <use xlink:href="#DejaVuSans-62" transform="translate(414.404297 0)"/>
       <use xlink:href="#DejaVuSans-72" transform="translate(477.880859 0)"/>
       <use xlink:href="#DejaVuSans-65" transform="translate(516.744141 0)"/>
      </g>
     </g>
    </g>
    <g id="xtick_6">
     <g id="line2d_11">
      <path d="M 934.848394 347.630219 
L 934.848394 22.798125 
" clip-path="url(#p991746381f)" style="fill: none; stroke: #b0b0b0; stroke-width: 0.8; stroke-linecap: square"/>
     </g>
     <g id="line2d_12">
      <g>
       <use xlink:href="#m0b01eab002" x="934.848394" y="347.630219" style="stroke: #000000; stroke-width: 0.8"/>
      </g>
     </g>
     <g id="text_6">
      <!-- Noviembre -->
      <g transform="translate(917.503285 398.595688) rotate(-45) scale(0.1 -0.1)">
       <defs>
        <path id="DejaVuSans-4e" d="M 628 4666 
L 1478 4666 
L 3547 763 
L 3547 4666 
L 4159 4666 
L 4159 0 
L 3309 0 
L 1241 3903 
L 1241 0 
L 628 0 
L 628 4666 
z
" transform="scale(0.015625)"/>
        <path id="DejaVuSans-76" d="M 191 3500 
L 800 3500 
L 1894 563 
L 2988 3500 
L 3597 3500 
L 2284 0 
L 1503 0 
L 191 3500 
z
" transform="scale(0.015625)"/>
       </defs>
       <use xlink:href="#DejaVuSans-4e"/>
       <use xlink:href="#DejaVuSans-6f" transform="translate(74.804688 0)"/>
       <use xlink:href="#DejaVuSans-76" transform="translate(135.986328 0)"/>
       <use xlink:href="#DejaVuSans-69" transform="translate(195.166016 0)"/>
       <use xlink:href="#DejaVuSans-65" transform="translate(222.949219 0)"/>
       <use xlink:href="#DejaVuSans-6d" transform="translate(284.472656 0)"/>
       <use xlink:href="#DejaVuSans-62" transform="translate(381.884766 0)"/>
       <use xlink:href="#DejaVuSans-72" transform="translate(445.361328 0)"/>
       <use xlink:href="#DejaVuSans-65" transform="translate(484.224609 0)"/>
      </g>
     </g>
    </g>
    <g id="text_7">
     <!-- Mes -->
     <g transform="translate(546.135313 413.963889) scale(0.1 -0.1)">
      <defs>
       <path id="DejaVuSans-73" d="M 2834 3397 
L 2834 2853 
Q 2591 2978 2328 3040 
Q 2066 3103 1784 3103 
Q 1356 3103 1142 2972 
Q 928 2841 928 2578 
Q 928 2378 1081 2264 
Q 1234 2150 1697 2047 
L 1894 2003 
Q 2506 1872 2764 1633 
Q 3022 1394 3022 966 
Q 3022 478 2636 193 
Q 2250 -91 1575 -91 
Q 1294 -91 989 -36 
Q 684 19 347 128 
L 347 722 
Q 666 556 975 473 
Q 1284 391 1588 391 
Q 1994 391 2212 530 
Q 2431 669 2431 922 
Q 2431 1156 2273 1281 
Q 2116 1406 1581 1522 
L 1381 1569 
Q 847 1681 609 1914 
Q 372 2147 372 2553 
Q 372 3047 722 3315 
Q 1072 3584 1716 3584 
Q 2034 3584 2315 3537 
Q 2597 3491 2834 3397 
z
" transform="scale(0.015625)"/>
      </defs>
      <use xlink:href="#DejaVuSans-4d"/>
      <use xlink:href="#DejaVuSans-65" transform="translate(86.279297 0)"/>
      <use xlink:href="#DejaVuSans-73" transform="translate(147.802734 0)"/>
     </g>
    </g>
   </g>
   <g id="matplotlib.axis_2">
    <g id="ytick_1">
     <g id="line2d_13">
      <path d="M 46.965625 333.624255 
L 1065.295625 333.624255 
" clip-path="url(#p991746381f)" style="fill: none; stroke: #b0b0b0; stroke-width: 0.8; stroke-linecap: square"/>
     </g>
     <g id="line2d_14">
      <defs>
       <path id="m8b86930b7f" d="M 0 0 
L -3.5 0 
" style="stroke: #000000; stroke-width: 0.8"/>
      </defs>
      <g>
       <use xlink:href="#m8b86930b7f" x="46.965625" y="333.624255" style="stroke: #000000; stroke-width: 0.8"/>
      </g>
     </g>
     <g id="text_8">
      <!-- 0 -->
      <g transform="translate(33.603125 337.423474) scale(0.1 -0.1)">
       <defs>
        <path id="DejaVuSans-30" d="M 2034 4250 
Q 1547 4250 1301 3770 
Q 1056 3291 1056 2328 
Q 1056 1369 1301 889 
Q 1547 409 2034 409 
Q 2525 409 2770 889 
Q 3016 1369 3016 2328 
Q 3016 3291 2770 3770 
Q 2525 4250 2034 4250 
z
M 2034 4750 
Q 2819 4750 3233 4129 
Q 3647 3509 3647 2328 
Q 3647 1150 3233 529 
Q 2819 -91 2034 -91 
Q 1250 -91 836 529 
Q 422 1150 422 2328 
Q 422 3509 836 4129 
Q 1250 4750 2034 4750 
z
" transform="scale(0.015625)"/>
       </defs>
       <use xlink:href="#DejaVuSans-30"/>
      </g>
     </g>
    </g>
    <g id="ytick_2">
     <g id="line2d_15">
      <path d="M 46.965625 295.667712 
L 1065.295625 295.667712 
" clip-path="url(#p991746381f)" style="fill: none; stroke: #b0b0b0; stroke-width: 0.8; stroke-linecap: square"/>
     </g>
     <g id="line2d_16">
      <g>
       <use xlink:href="#m8b86930b7f" x="46.965625" y="295.667712" style="stroke: #000000; stroke-width: 0.8"/>
      </g>
     </g>
     <g id="text_9">
      <!-- 100 -->
      <g transform="translate(20.878125 299.466931) scale(0.1 -0.1)">
       <defs>
        <path id="DejaVuSans-31" d="M 794 531 
L 1825 531 
L 1825 4091 
L 703 3866 
L 703 4441 
L 1819 4666 
L 2450 4666 
L 2450 531 
L 3481 531 
L 3481 0 
L 794 0 
L 794 531 
z
" transform="scale(0.015625)"/>
       </defs>
       <use xlink:href="#DejaVuSans-31"/>
       <use xlink:href="#DejaVuSans-30" transform="translate(63.623047 0)"/>
       <use xlink:href="#DejaVuSans-30" transform="translate(127.246094 0)"/>
      </g>
     </g>
    </g>
    <g id="ytick_3">
     <g id="line2d_17">
      <path d="M 46.965625 257.711169 
L 1065.295625 257.711169 
" clip-path="url(#p991746381f)" style="fill: none; stroke: #b0b0b0; stroke-width: 0.8; stroke-linecap: square"/>
     </g>
     <g id="line2d_18">
      <g>
       <use xlink:href="#m8b86930b7f" x="46.965625" y="257.711169" style="stroke: #000000; stroke-width: 0.8"/>
      </g>
     </g>
     <g id="text_10">
      <!-- 200 -->
      <g transform="translate(20.878125 261.510388) scale(0.1 -0.1)">
       <defs>
        <path id="DejaVuSans-32" d="M 1228 531 
L 3431 531 
L 3431 0 
L 469 0 
L 469 531 
Q 828 903 1448 1529 
Q 2069 2156 2228 2338 
Q 2531 2678 2651 2914 
Q 2772 3150 2772 3378 
Q 2772 3750 2511 3984 
Q 2250 4219 1831 4219 
Q 1534 4219 1204 4116 
Q 875 4013 500 3803 
L 500 4441 
Q 881 4594 1212 4672 
Q 1544 4750 1819 4750 
Q 2544 4750 2975 4387 
Q 3406 4025 3406 3419 
Q 3406 3131 3298 2873 
Q 3191 2616 2906 2266 
Q 2828 2175 2409 1742 
Q 1991 1309 1228 531 
z
" transform="scale(0.015625)"/>
       </defs>
       <use xlink:href="#DejaVuSans-32"/>
       <use xlink:href="#DejaVuSans-30" transform="translate(63.623047 0)"/>
       <use xlink:href="#DejaVuSans-30" transform="translate(127.246094 0)"/>
      </g>
     </g>
    </g>
    <g id="ytick_4">
     <g id="line2d_19">
      <path d="M 46.965625 219.754626 
L 1065.295625 219.754626 
" clip-path="url(#p991746381f)" style="fill: none; stroke: #b0b0b0; stroke-width: 0.8; stroke-linecap: square"/>
     </g>
     <g id="line2d_20">
      <g>
       <use xlink:href="#m8b86930b7f" x="46.965625" y="219.754626" style="stroke: #000000; stroke-width: 0.8"/>
      </g>
     </g>
     <g id="text_11">
      <!-- 300 -->
      <g transform="translate(20.878125 223.553845) scale(0.1 -0.1)">
       <defs>
        <path id="DejaVuSans-33" d="M 2597 2516 
Q 3050 2419 3304 2112 
Q 3559 1806 3559 1356 
Q 3559 666 3084 287 
Q 2609 -91 1734 -91 
Q 1441 -91 1130 -33 
Q 819 25 488 141 
L 488 750 
Q 750 597 1062 519 
Q 1375 441 1716 441 
Q 2309 441 2620 675 
Q 2931 909 2931 1356 
Q 2931 1769 2642 2001 
Q 2353 2234 1838 2234 
L 1294 2234 
L 1294 2753 
L 1863 2753 
Q 2328 2753 2575 2939 
Q 2822 3125 2822 3475 
Q 2822 3834 2567 4026 
Q 2313 4219 1838 4219 
Q 1578 4219 1281 4162 
Q 984 4106 628 3988 
L 628 4550 
Q 988 4650 1302 4700 
Q 1616 4750 1894 4750 
Q 2613 4750 3031 4423 
Q 3450 4097 3450 3541 
Q 3450 3153 3228 2886 
Q 3006 2619 2597 2516 
z
" transform="scale(0.015625)"/>
       </defs>
       <use xlink:href="#DejaVuSans-33"/>
       <use xlink:href="#DejaVuSans-30" transform="translate(63.623047 0)"/>
       <use xlink:href="#DejaVuSans-30" transform="translate(127.246094 0)"/>
      </g>
     </g>
    </g>
    <g id="ytick_5">
     <g id="line2d_21">
      <path d="M 46.965625 181.798083 
L 1065.295625 181.798083 
" clip-path="url(#p991746381f)" style="fill: none; stroke: #b0b0b0; stroke-width: 0.8; stroke-linecap: square"/>
     </g>
     <g id="line2d_22">
      <g>
       <use xlink:href="#m8b86930b7f" x="46.965625" y="181.798083" style="stroke: #000000; stroke-width: 0.8"/>
      </g>
     </g>
     <g id="text_12">
      <!-- 400 -->
      <g transform="translate(20.878125 185.597302) scale(0.1 -0.1)">
       <defs>
        <path id="DejaVuSans-34" d="M 2419 4116 
L 825 1625 
L 2419 1625 
L 2419 4116 
z
M 2253 4666 
L 3047 4666 
L 3047 1625 
L 3713 1625 
L 3713 1100 
L 3047 1100 
L 3047 0 
L 2419 0 
L 2419 1100 
L 313 1100 
L 313 1709 
L 2253 4666 
z
" transform="scale(0.015625)"/>
       </defs>
       <use xlink:href="#DejaVuSans-34"/>
       <use xlink:href="#DejaVuSans-30" transform="translate(63.623047 0)"/>
       <use xlink:href="#DejaVuSans-30" transform="translate(127.246094 0)"/>
      </g>
     </g>
    </g>
    <g id="ytick_6">
     <g id="line2d_23">
      <path d="M 46.965625 143.84154 
L 1065.295625 143.84154 
" clip-path="url(#p991746381f)" style="fill: none; stroke: #b0b0b0; stroke-width: 0.8; stroke-linecap: square"/>
     </g>
     <g id="line2d_24">
      <g>
       <use xlink:href="#m8b86930b7f" x="46.965625" y="143.84154" style="stroke: #000000; stroke-width: 0.8"/>
      </g>
     </g>
     <g id="text_13">
      <!-- 500 -->
      <g transform="translate(20.878125 147.640759) scale(0.1 -0.1)">
       <defs>
        <path id="DejaVuSans-35" d="M 691 4666 
L 3169 4666 
L 3169 4134 
L 1269 4134 
L 1269 2991 
Q 1406 3038 1543 3061 
Q 1681 3084 1819 3084 
Q 2600 3084 3056 2656 
Q 3513 2228 3513 1497 
Q 3513 744 3044 326 
Q 2575 -91 1722 -91 
Q 1428 -91 1123 -41 
Q 819 9 494 109 
L 494 744 
Q 775 591 1075 516 
Q 1375 441 1709 441 
Q 2250 441 2565 725 
Q 2881 1009 2881 1497 
Q 2881 1984 2565 2268 
Q 2250 2553 1709 2553 
Q 1456 2553 1204 2497 
Q 953 2441 691 2322 
L 691 4666 
z
" transform="scale(0.015625)"/>
       </defs>
       <use xlink:href="#DejaVuSans-35"/>
       <use xlink:href="#DejaVuSans-30" transform="translate(63.623047 0)"/>
       <use xlink:href="#DejaVuSans-30" transform="translate(127.246094 0)"/>
      </g>
     </g>
    </g>
    <g id="ytick_7">
     <g id="line2d_25">
      <path d="M 46.965625 105.884997 
L 1065.295625 105.884997 
" clip-path="url(#p991746381f)" style="fill: none; stroke: #b0b0b0; stroke-width: 0.8; stroke-linecap: square"/>
     </g>
     <g id="line2d_26">
      <g>
       <use xlink:href="#m8b86930b7f" x="46.965625" y="105.884997" style="stroke: #000000; stroke-width: 0.8"/>
      </g>
     </g>
     <g id="text_14">
      <!-- 600 -->
      <g transform="translate(20.878125 109.684216) scale(0.1 -0.1)">
       <defs>
        <path id="DejaVuSans-36" d="M 2113 2584 
Q 1688 2584 1439 2293 
Q 1191 2003 1191 1497 
Q 1191 994 1439 701 
Q 1688 409 2113 409 
Q 2538 409 2786 701 
Q 3034 994 3034 1497 
Q 3034 2003 2786 2293 
Q 2538 2584 2113 2584 
z
M 3366 4563 
L 3366 3988 
Q 3128 4100 2886 4159 
Q 2644 4219 2406 4219 
Q 1781 4219 1451 3797 
Q 1122 3375 1075 2522 
Q 1259 2794 1537 2939 
Q 1816 3084 2150 3084 
Q 2853 3084 3261 2657 
Q 3669 2231 3669 1497 
Q 3669 778 3244 343 
Q 2819 -91 2113 -91 
Q 1303 -91 875 529 
Q 447 1150 447 2328 
Q 447 3434 972 4092 
Q 1497 4750 2381 4750 
Q 2619 4750 2861 4703 
Q 3103 4656 3366 4563 
z
" transform="scale(0.015625)"/>
       </defs>
       <use xlink:href="#DejaVuSans-36"/>
       <use xlink:href="#DejaVuSans-30" transform="translate(63.623047 0)"/>
       <use xlink:href="#DejaVuSans-30" transform="translate(127.246094 0)"/>
      </g>
     </g>
    </g>
    <g id="ytick_8">
     <g id="line2d_27">
      <path d="M 46.965625 67.928455 
L 1065.295625 67.928455 
" clip-path="url(#p991746381f)" style="fill: none; stroke: #b0b0b0; stroke-width: 0.8; stroke-linecap: square"/>
     </g>
     <g id="line2d_28">
      <g>
       <use xlink:href="#m8b86930b7f" x="46.965625" y="67.928455" style="stroke: #000000; stroke-width: 0.8"/>
      </g>
     </g>
     <g id="text_15">
      <!-- 700 -->
      <g transform="translate(20.878125 71.727673) scale(0.1 -0.1)">
       <defs>
        <path id="DejaVuSans-37" d="M 525 4666 
L 3525 4666 
L 3525 4397 
L 1831 0 
L 1172 0 
L 2766 4134 
L 525 4134 
L 525 4666 
z
" transform="scale(0.015625)"/>
       </defs>
       <use xlink:href="#DejaVuSans-37"/>
       <use xlink:href="#DejaVuSans-30" transform="translate(63.623047 0)"/>
       <use xlink:href="#DejaVuSans-30" transform="translate(127.246094 0)"/>
      </g>
     </g>
    </g>
    <g id="ytick_9">
     <g id="line2d_29">
      <path d="M 46.965625 29.971912 
L 1065.295625 29.971912 
" clip-path="url(#p991746381f)" style="fill: none; stroke: #b0b0b0; stroke-width: 0.8; stroke-linecap: square"/>
     </g>
     <g id="line2d_30">
      <g>
       <use xlink:href="#m8b86930b7f" x="46.965625" y="29.971912" style="stroke: #000000; stroke-width: 0.8"/>
      </g>
     </g>
     <g id="text_16">
      <!-- 800 -->
      <g transform="translate(20.878125 33.77113) scale(0.1 -0.1)">
       <defs>
        <path id="DejaVuSans-38" d="M 2034 2216 
Q 1584 2216 1326 1975 
Q 1069 1734 1069 1313 
Q 1069 891 1326 650 
Q 1584 409 2034 409 
Q 2484 409 2743 651 
Q 3003 894 3003 1313 
Q 3003 1734 2745 1975 
Q 2488 2216 2034 2216 
z
M 1403 2484 
Q 997 2584 770 2862 
Q 544 3141 544 3541 
Q 544 4100 942 4425 
Q 1341 4750 2034 4750 
Q 2731 4750 3128 4425 
Q 3525 4100 3525 3541 
Q 3525 3141 3298 2862 
Q 3072 2584 2669 2484 
Q 3125 2378 3379 2068 
Q 3634 1759 3634 1313 
Q 3634 634 3220 271 
Q 2806 -91 2034 -91 
Q 1263 -91 848 271 
Q 434 634 434 1313 
Q 434 1759 690 2068 
Q 947 2378 1403 2484 
z
M 1172 3481 
Q 1172 3119 1398 2916 
Q 1625 2713 2034 2713 
Q 2441 2713 2670 2916 
Q 2900 3119 2900 3481 
Q 2900 3844 2670 4047 
Q 2441 4250 2034 4250 
Q 1625 4250 1398 4047 
Q 1172 3844 1172 3481 
z
" transform="scale(0.015625)"/>
       </defs>
       <use xlink:href="#DejaVuSans-38"/>
       <use xlink:href="#DejaVuSans-30" transform="translate(63.623047 0)"/>
       <use xlink:href="#DejaVuSans-30" transform="translate(127.246094 0)"/>
      </g>
     </g>
    </g>
    <g id="text_17">
     <!-- Cantidad de Incendios -->
     <g transform="translate(14.798438 240.994641) rotate(-90) scale(0.1 -0.1)">
      <defs>
       <path id="DejaVuSans-43" d="M 4122 4306 
L 4122 3641 
Q 3803 3938 3442 4084 
Q 3081 4231 2675 4231 
Q 1875 4231 1450 3742 
Q 1025 3253 1025 2328 
Q 1025 1406 1450 917 
Q 1875 428 2675 428 
Q 3081 428 3442 575 
Q 3803 722 4122 1019 
L 4122 359 
Q 3791 134 3420 21 
Q 3050 -91 2638 -91 
Q 1578 -91 968 557 
Q 359 1206 359 2328 
Q 359 3453 968 4101 
Q 1578 4750 2638 4750 
Q 3056 4750 3426 4639 
Q 3797 4528 4122 4306 
z
" transform="scale(0.015625)"/>
       <path id="DejaVuSans-64" d="M 2906 2969 
L 2906 4863 
L 3481 4863 
L 3481 0 
L 2906 0 
L 2906 525 
Q 2725 213 2448 61 
Q 2172 -91 1784 -91 
Q 1150 -91 751 415 
Q 353 922 353 1747 
Q 353 2572 751 3078 
Q 1150 3584 1784 3584 
Q 2172 3584 2448 3432 
Q 2725 3281 2906 2969 
z
M 947 1747 
Q 947 1113 1208 752 
Q 1469 391 1925 391 
Q 2381 391 2643 752 
Q 2906 1113 2906 1747 
Q 2906 2381 2643 2742 
Q 2381 3103 1925 3103 
Q 1469 3103 1208 2742 
Q 947 2381 947 1747 
z
" transform="scale(0.015625)"/>
       <path id="DejaVuSans-20" transform="scale(0.015625)"/>
       <path id="DejaVuSans-49" d="M 628 4666 
L 1259 4666 
L 1259 0 
L 628 0 
L 628 4666 
z
" transform="scale(0.015625)"/>
       <path id="DejaVuSans-63" d="M 3122 3366 
L 3122 2828 
Q 2878 2963 2633 3030 
Q 2388 3097 2138 3097 
Q 1578 3097 1268 2742 
Q 959 2388 959 1747 
Q 959 1106 1268 751 
Q 1578 397 2138 397 
Q 2388 397 2633 464 
Q 2878 531 3122 666 
L 3122 134 
Q 2881 22 2623 -34 
Q 2366 -91 2075 -91 
Q 1284 -91 818 406 
Q 353 903 353 1747 
Q 353 2603 823 3093 
Q 1294 3584 2113 3584 
Q 2378 3584 2631 3529 
Q 2884 3475 3122 3366 
z
" transform="scale(0.015625)"/>
      </defs>
      <use xlink:href="#DejaVuSans-43"/>
      <use xlink:href="#DejaVuSans-61" transform="translate(69.824219 0)"/>
      <use xlink:href="#DejaVuSans-6e" transform="translate(131.103516 0)"/>
      <use xlink:href="#DejaVuSans-74" transform="translate(194.482422 0)"/>
      <use xlink:href="#DejaVuSans-69" transform="translate(233.691406 0)"/>
      <use xlink:href="#DejaVuSans-64" transform="translate(261.474609 0)"/>
      <use xlink:href="#DejaVuSans-61" transform="translate(324.951172 0)"/>
      <use xlink:href="#DejaVuSans-64" transform="translate(386.230469 0)"/>
      <use xlink:href="#DejaVuSans-20" transform="translate(449.707031 0)"/>
      <use xlink:href="#DejaVuSans-64" transform="translate(481.494141 0)"/>
      <use xlink:href="#DejaVuSans-65" transform="translate(544.970703 0)"/>
      <use xlink:href="#DejaVuSans-20" transform="translate(606.494141 0)"/>
      <use xlink:href="#DejaVuSans-49" transform="translate(638.28125 0)"/>
      <use xlink:href="#DejaVuSans-6e" transform="translate(667.773438 0)"/>
      <use xlink:href="#DejaVuSans-63" transform="translate(731.152344 0)"/>
      <use xlink:href="#DejaVuSans-65" transform="translate(786.132812 0)"/>
      <use xlink:href="#DejaVuSans-6e" transform="translate(847.65625 0)"/>
      <use xlink:href="#DejaVuSans-64" transform="translate(911.035156 0)"/>
      <use xlink:href="#DejaVuSans-69" transform="translate(974.511719 0)"/>
      <use xlink:href="#DejaVuSans-6f" transform="translate(1002.294922 0)"/>
      <use xlink:href="#DejaVuSans-73" transform="translate(1063.476562 0)"/>
     </g>
    </g>
   </g>
   <g id="line2d_31">
    <path d="M 93.253352 264.163781 
L 177.412856 306.675109 
L 261.572361 327.171643 
L 345.731865 332.865124 
L 429.891369 332.105993 
L 514.050873 327.930773 
L 598.210377 321.857727 
L 682.369881 274.791613 
L 766.529385 292.251623 
L 850.688889 294.529016 
L 934.848394 287.696838 
L 1019.007898 301.740759 
" clip-path="url(#p991746381f)" style="fill: none; stroke: #1f77b4; stroke-width: 1.5; stroke-linecap: square"/>
    <defs>
     <path id="md4fed61024" d="M 0 3 
C 0.795609 3 1.55874 2.683901 2.12132 2.12132 
C 2.683901 1.55874 3 0.795609 3 0 
C 3 -0.795609 2.683901 -1.55874 2.12132 -2.12132 
C 1.55874 -2.683901 0.795609 -3 0 -3 
C -0.795609 -3 -1.55874 -2.683901 -2.12132 -2.12132 
C -2.683901 -1.55874 -3 -0.795609 -3 0 
C -3 0.795609 -2.683901 1.55874 -2.12132 2.12132 
C -1.55874 2.683901 -0.795609 3 0 3 
z
" style="stroke: #1f77b4"/>
    </defs>
    <g clip-path="url(#p991746381f)">
     <use xlink:href="#md4fed61024" x="93.253352" y="264.163781" style="fill: #1f77b4; stroke: #1f77b4"/>
     <use xlink:href="#md4fed61024" x="177.412856" y="306.675109" style="fill: #1f77b4; stroke: #1f77b4"/>
     <use xlink:href="#md4fed61024" x="261.572361" y="327.171643" style="fill: #1f77b4; stroke: #1f77b4"/>
     <use xlink:href="#md4fed61024" x="345.731865" y="332.865124" style="fill: #1f77b4; stroke: #1f77b4"/>
     <use xlink:href="#md4fed61024" x="429.891369" y="332.105993" style="fill: #1f77b4; stroke: #1f77b4"/>
     <use xlink:href="#md4fed61024" x="514.050873" y="327.930773" style="fill: #1f77b4; stroke: #1f77b4"/>
     <use xlink:href="#md4fed61024" x="598.210377" y="321.857727" style="fill: #1f77b4; stroke: #1f77b4"/>
     <use xlink:href="#md4fed61024" x="682.369881" y="274.791613" style="fill: #1f77b4; stroke: #1f77b4"/>
     <use xlink:href="#md4fed61024" x="766.529385" y="292.251623" style="fill: #1f77b4; stroke: #1f77b4"/>
     <use xlink:href="#md4fed61024" x="850.688889" y="294.529016" style="fill: #1f77b4; stroke: #1f77b4"/>
     <use xlink:href="#md4fed61024" x="934.848394" y="287.696838" style="fill: #1f77b4; stroke: #1f77b4"/>
     <use xlink:href="#md4fed61024" x="1019.007898" y="301.740759" style="fill: #1f77b4; stroke: #1f77b4"/>
    </g>
   </g>
   <g id="line2d_32">
    <path d="M 93.253352 269.857263 
L 177.412856 282.762487 
L 261.572361 305.156848 
L 345.731865 324.89425 
L 429.891369 331.726428 
L 514.050873 321.478161 
L 598.210377 298.32467 
L 682.369881 227.345935 
L 766.529385 259.988562 
L 850.688889 301.740759 
L 934.848394 328.689904 
L 1019.007898 298.704235 
" clip-path="url(#p991746381f)" style="fill: none; stroke: #ff7f0e; stroke-width: 1.5; stroke-linecap: square"/>
    <defs>
     <path id="m6037c493b3" d="M 0 3 
C 0.795609 3 1.55874 2.683901 2.12132 2.12132 
C 2.683901 1.55874 3 0.795609 3 0 
C 3 -0.795609 2.683901 -1.55874 2.12132 -2.12132 
C 1.55874 -2.683901 0.795609 -3 0 -3 
C -0.795609 -3 -1.55874 -2.683901 -2.12132 -2.12132 
C -2.683901 -1.55874 -3 -0.795609 -3 0 
C -3 0.795609 -2.683901 1.55874 -2.12132 2.12132 
C -1.55874 2.683901 -0.795609 3 0 3 
z
" style="stroke: #ff7f0e"/>
    </defs>
    <g clip-path="url(#p991746381f)">
     <use xlink:href="#m6037c493b3" x="93.253352" y="269.857263" style="fill: #ff7f0e; stroke: #ff7f0e"/>
     <use xlink:href="#m6037c493b3" x="177.412856" y="282.762487" style="fill: #ff7f0e; stroke: #ff7f0e"/>
     <use xlink:href="#m6037c493b3" x="261.572361" y="305.156848" style="fill: #ff7f0e; stroke: #ff7f0e"/>
     <use xlink:href="#m6037c493b3" x="345.731865" y="324.89425" style="fill: #ff7f0e; stroke: #ff7f0e"/>
     <use xlink:href="#m6037c493b3" x="429.891369" y="331.726428" style="fill: #ff7f0e; stroke: #ff7f0e"/>
     <use xlink:href="#m6037c493b3" x="514.050873" y="321.478161" style="fill: #ff7f0e; stroke: #ff7f0e"/>
     <use xlink:href="#m6037c493b3" x="598.210377" y="298.32467" style="fill: #ff7f0e; stroke: #ff7f0e"/>
     <use xlink:href="#m6037c493b3" x="682.369881" y="227.345935" style="fill: #ff7f0e; stroke: #ff7f0e"/>
     <use xlink:href="#m6037c493b3" x="766.529385" y="259.988562" style="fill: #ff7f0e; stroke: #ff7f0e"/>
     <use xlink:href="#m6037c493b3" x="850.688889" y="301.740759" style="fill: #ff7f0e; stroke: #ff7f0e"/>
     <use xlink:href="#m6037c493b3" x="934.848394" y="328.689904" style="fill: #ff7f0e; stroke: #ff7f0e"/>
     <use xlink:href="#m6037c493b3" x="1019.007898" y="298.704235" style="fill: #ff7f0e; stroke: #ff7f0e"/>
    </g>
   </g>
   <g id="line2d_33">
    <path d="M 93.253352 286.178576 
L 177.412856 288.455969 
L 261.572361 311.60946 
L 345.731865 326.032946 
L 429.891369 329.828601 
L 514.050873 305.915979 
L 598.210377 272.134655 
L 682.369881 186.352868 
L 766.529385 256.192907 
L 850.688889 284.280749 
L 934.848394 304.018151 
L 1019.007898 282.003357 
" clip-path="url(#p991746381f)" style="fill: none; stroke: #2ca02c; stroke-width: 1.5; stroke-linecap: square"/>
    <defs>
     <path id="m34d3a4c8f8" d="M 0 3 
C 0.795609 3 1.55874 2.683901 2.12132 2.12132 
C 2.683901 1.55874 3 0.795609 3 0 
C 3 -0.795609 2.683901 -1.55874 2.12132 -2.12132 
C 1.55874 -2.683901 0.795609 -3 0 -3 
C -0.795609 -3 -1.55874 -2.683901 -2.12132 -2.12132 
C -2.683901 -1.55874 -3 -0.795609 -3 0 
C -3 0.795609 -2.683901 1.55874 -2.12132 2.12132 
C -1.55874 2.683901 -0.795609 3 0 3 
z
" style="stroke: #2ca02c"/>
    </defs>
    <g clip-path="url(#p991746381f)">
     <use xlink:href="#m34d3a4c8f8" x="93.253352" y="286.178576" style="fill: #2ca02c; stroke: #2ca02c"/>
     <use xlink:href="#m34d3a4c8f8" x="177.412856" y="288.455969" style="fill: #2ca02c; stroke: #2ca02c"/>
     <use xlink:href="#m34d3a4c8f8" x="261.572361" y="311.60946" style="fill: #2ca02c; stroke: #2ca02c"/>
     <use xlink:href="#m34d3a4c8f8" x="345.731865" y="326.032946" style="fill: #2ca02c; stroke: #2ca02c"/>
     <use xlink:href="#m34d3a4c8f8" x="429.891369" y="329.828601" style="fill: #2ca02c; stroke: #2ca02c"/>
     <use xlink:href="#m34d3a4c8f8" x="514.050873" y="305.915979" style="fill: #2ca02c; stroke: #2ca02c"/>
     <use xlink:href="#m34d3a4c8f8" x="598.210377" y="272.134655" style="fill: #2ca02c; stroke: #2ca02c"/>
     <use xlink:href="#m34d3a4c8f8" x="682.369881" y="186.352868" style="fill: #2ca02c; stroke: #2ca02c"/>
     <use xlink:href="#m34d3a4c8f8" x="766.529385" y="256.192907" style="fill: #2ca02c; stroke: #2ca02c"/>
     <use xlink:href="#m34d3a4c8f8" x="850.688889" y="284.280749" style="fill: #2ca02c; stroke: #2ca02c"/>
     <use xlink:href="#m34d3a4c8f8" x="934.848394" y="304.018151" style="fill: #2ca02c; stroke: #2ca02c"/>
     <use xlink:href="#m34d3a4c8f8" x="1019.007898" y="282.003357" style="fill: #2ca02c; stroke: #2ca02c"/>
    </g>
   </g>
   <g id="line2d_34">
    <path d="M 93.253352 286.178576 
L 177.412856 302.120324 
L 261.572361 266.441174 
L 345.731865 305.156848 
L 429.891369 298.704235 
L 514.050873 295.667712 
L 598.210377 241.769421 
L 682.369881 225.068542 
L 766.529385 261.127258 
L 850.688889 279.346399 
L 934.848394 284.280749 
L 1019.007898 296.047277 
" clip-path="url(#p991746381f)" style="fill: none; stroke: #d62728; stroke-width: 1.5; stroke-linecap: square"/>
    <defs>
     <path id="mccb326432c" d="M 0 3 
C 0.795609 3 1.55874 2.683901 2.12132 2.12132 
C 2.683901 1.55874 3 0.795609 3 0 
C 3 -0.795609 2.683901 -1.55874 2.12132 -2.12132 
C 1.55874 -2.683901 0.795609 -3 0 -3 
C -0.795609 -3 -1.55874 -2.683901 -2.12132 -2.12132 
C -2.683901 -1.55874 -3 -0.795609 -3 0 
C -3 0.795609 -2.683901 1.55874 -2.12132 2.12132 
C -1.55874 2.683901 -0.795609 3 0 3 
z
" style="stroke: #d62728"/>
    </defs>
    <g clip-path="url(#p991746381f)">
     <use xlink:href="#mccb326432c" x="93.253352" y="286.178576" style="fill: #d62728; stroke: #d62728"/>
     <use xlink:href="#mccb326432c" x="177.412856" y="302.120324" style="fill: #d62728; stroke: #d62728"/>
     <use xlink:href="#mccb326432c" x="261.572361" y="266.441174" style="fill: #d62728; stroke: #d62728"/>
     <use xlink:href="#mccb326432c" x="345.731865" y="305.156848" style="fill: #d62728; stroke: #d62728"/>
     <use xlink:href="#mccb326432c" x="429.891369" y="298.704235" style="fill: #d62728; stroke: #d62728"/>
     <use xlink:href="#mccb326432c" x="514.050873" y="295.667712" style="fill: #d62728; stroke: #d62728"/>
     <use xlink:href="#mccb326432c" x="598.210377" y="241.769421" style="fill: #d62728; stroke: #d62728"/>
     <use xlink:href="#mccb326432c" x="682.369881" y="225.068542" style="fill: #d62728; stroke: #d62728"/>
     <use xlink:href="#mccb326432c" x="766.529385" y="261.127258" style="fill: #d62728; stroke: #d62728"/>
     <use xlink:href="#mccb326432c" x="850.688889" y="279.346399" style="fill: #d62728; stroke: #d62728"/>
     <use xlink:href="#mccb326432c" x="934.848394" y="284.280749" style="fill: #d62728; stroke: #d62728"/>
     <use xlink:href="#mccb326432c" x="1019.007898" y="296.047277" style="fill: #d62728; stroke: #d62728"/>
    </g>
   </g>
   <g id="line2d_35">
    <path d="M 93.253352 303.638586 
L 177.412856 311.60946 
L 261.572361 305.536413 
L 345.731865 326.412512 
L 429.891369 327.171643 
L 514.050873 322.616857 
L 598.210377 191.287219 
L 682.369881 37.56322 
L 766.529385 180.659387 
L 850.688889 213.681579 
L 934.848394 304.018151 
L 1019.007898 291.492492 
" clip-path="url(#p991746381f)" style="fill: none; stroke: #9467bd; stroke-width: 1.5; stroke-linecap: square"/>
    <defs>
     <path id="mf53223074b" d="M 0 3 
C 0.795609 3 1.55874 2.683901 2.12132 2.12132 
C 2.683901 1.55874 3 0.795609 3 0 
C 3 -0.795609 2.683901 -1.55874 2.12132 -2.12132 
C 1.55874 -2.683901 0.795609 -3 0 -3 
C -0.795609 -3 -1.55874 -2.683901 -2.12132 -2.12132 
C -2.683901 -1.55874 -3 -0.795609 -3 0 
C -3 0.795609 -2.683901 1.55874 -2.12132 2.12132 
C -1.55874 2.683901 -0.795609 3 0 3 
z
" style="stroke: #9467bd"/>
    </defs>
    <g clip-path="url(#p991746381f)">
     <use xlink:href="#mf53223074b" x="93.253352" y="303.638586" style="fill: #9467bd; stroke: #9467bd"/>
     <use xlink:href="#mf53223074b" x="177.412856" y="311.60946" style="fill: #9467bd; stroke: #9467bd"/>
     <use xlink:href="#mf53223074b" x="261.572361" y="305.536413" style="fill: #9467bd; stroke: #9467bd"/>
     <use xlink:href="#mf53223074b" x="345.731865" y="326.412512" style="fill: #9467bd; stroke: #9467bd"/>
     <use xlink:href="#mf53223074b" x="429.891369" y="327.171643" style="fill: #9467bd; stroke: #9467bd"/>
     <use xlink:href="#mf53223074b" x="514.050873" y="322.616857" style="fill: #9467bd; stroke: #9467bd"/>
     <use xlink:href="#mf53223074b" x="598.210377" y="191.287219" style="fill: #9467bd; stroke: #9467bd"/>
     <use xlink:href="#mf53223074b" x="682.369881" y="37.56322" style="fill: #9467bd; stroke: #9467bd"/>
     <use xlink:href="#mf53223074b" x="766.529385" y="180.659387" style="fill: #9467bd; stroke: #9467bd"/>
     <use xlink:href="#mf53223074b" x="850.688889" y="213.681579" style="fill: #9467bd; stroke: #9467bd"/>
     <use xlink:href="#mf53223074b" x="934.848394" y="304.018151" style="fill: #9467bd; stroke: #9467bd"/>
     <use xlink:href="#mf53223074b" x="1019.007898" y="291.492492" style="fill: #9467bd; stroke: #9467bd"/>
    </g>
   </g>
   <g id="line2d_36">
    <path d="M 93.253352 266.820739 
L 177.412856 283.142053 
L 261.572361 321.098596 
L 345.731865 313.127722 
L 429.891369 314.266418 
L 514.050873 283.142053 
L 598.210377 178.381994 
L 682.369881 157.505896 
L 766.529385 145.359802 
L 850.688889 224.309411 
L 934.848394 259.988562 
L 1019.007898 247.842468 
" clip-path="url(#p991746381f)" style="fill: none; stroke: #8c564b; stroke-width: 1.5; stroke-linecap: square"/>
    <defs>
     <path id="mac4eca02d7" d="M 0 3 
C 0.795609 3 1.55874 2.683901 2.12132 2.12132 
C 2.683901 1.55874 3 0.795609 3 0 
C 3 -0.795609 2.683901 -1.55874 2.12132 -2.12132 
C 1.55874 -2.683901 0.795609 -3 0 -3 
C -0.795609 -3 -1.55874 -2.683901 -2.12132 -2.12132 
C -2.683901 -1.55874 -3 -0.795609 -3 0 
C -3 0.795609 -2.683901 1.55874 -2.12132 2.12132 
C -1.55874 2.683901 -0.795609 3 0 3 
z
" style="stroke: #8c564b"/>
    </defs>
    <g clip-path="url(#p991746381f)">
     <use xlink:href="#mac4eca02d7" x="93.253352" y="266.820739" style="fill: #8c564b; stroke: #8c564b"/>
     <use xlink:href="#mac4eca02d7" x="177.412856" y="283.142053" style="fill: #8c564b; stroke: #8c564b"/>
     <use xlink:href="#mac4eca02d7" x="261.572361" y="321.098596" style="fill: #8c564b; stroke: #8c564b"/>
     <use xlink:href="#mac4eca02d7" x="345.731865" y="313.127722" style="fill: #8c564b; stroke: #8c564b"/>
     <use xlink:href="#mac4eca02d7" x="429.891369" y="314.266418" style="fill: #8c564b; stroke: #8c564b"/>
     <use xlink:href="#mac4eca02d7" x="514.050873" y="283.142053" style="fill: #8c564b; stroke: #8c564b"/>
     <use xlink:href="#mac4eca02d7" x="598.210377" y="178.381994" style="fill: #8c564b; stroke: #8c564b"/>
     <use xlink:href="#mac4eca02d7" x="682.369881" y="157.505896" style="fill: #8c564b; stroke: #8c564b"/>
     <use xlink:href="#mac4eca02d7" x="766.529385" y="145.359802" style="fill: #8c564b; stroke: #8c564b"/>
     <use xlink:href="#mac4eca02d7" x="850.688889" y="224.309411" style="fill: #8c564b; stroke: #8c564b"/>
     <use xlink:href="#mac4eca02d7" x="934.848394" y="259.988562" style="fill: #8c564b; stroke: #8c564b"/>
     <use xlink:href="#mac4eca02d7" x="1019.007898" y="247.842468" style="fill: #8c564b; stroke: #8c564b"/>
    </g>
   </g>
   <g id="line2d_37">
    <path d="M 93.253352 237.594201 
L 177.412856 287.317273 
L 261.572361 297.565539 
L 345.731865 325.273815 
L 429.891369 326.412512 
L 514.050873 319.959899 
L 598.210377 288.835534 
L 682.369881 157.505896 
L 766.529385 196.9807 
L 850.688889 163.578943 
L 934.848394 265.302478 
L 1019.007898 295.667712 
" clip-path="url(#p991746381f)" style="fill: none; stroke: #e377c2; stroke-width: 1.5; stroke-linecap: square"/>
    <defs>
     <path id="me029851b70" d="M 0 3 
C 0.795609 3 1.55874 2.683901 2.12132 2.12132 
C 2.683901 1.55874 3 0.795609 3 0 
C 3 -0.795609 2.683901 -1.55874 2.12132 -2.12132 
C 1.55874 -2.683901 0.795609 -3 0 -3 
C -0.795609 -3 -1.55874 -2.683901 -2.12132 -2.12132 
C -2.683901 -1.55874 -3 -0.795609 -3 0 
C -3 0.795609 -2.683901 1.55874 -2.12132 2.12132 
C -1.55874 2.683901 -0.795609 3 0 3 
z
" style="stroke: #e377c2"/>
    </defs>
    <g clip-path="url(#p991746381f)">
     <use xlink:href="#me029851b70" x="93.253352" y="237.594201" style="fill: #e377c2; stroke: #e377c2"/>
     <use xlink:href="#me029851b70" x="177.412856" y="287.317273" style="fill: #e377c2; stroke: #e377c2"/>
     <use xlink:href="#me029851b70" x="261.572361" y="297.565539" style="fill: #e377c2; stroke: #e377c2"/>
     <use xlink:href="#me029851b70" x="345.731865" y="325.273815" style="fill: #e377c2; stroke: #e377c2"/>
     <use xlink:href="#me029851b70" x="429.891369" y="326.412512" style="fill: #e377c2; stroke: #e377c2"/>
     <use xlink:href="#me029851b70" x="514.050873" y="319.959899" style="fill: #e377c2; stroke: #e377c2"/>
     <use xlink:href="#me029851b70" x="598.210377" y="288.835534" style="fill: #e377c2; stroke: #e377c2"/>
     <use xlink:href="#me029851b70" x="682.369881" y="157.505896" style="fill: #e377c2; stroke: #e377c2"/>
     <use xlink:href="#me029851b70" x="766.529385" y="196.9807" style="fill: #e377c2; stroke: #e377c2"/>
     <use xlink:href="#me029851b70" x="850.688889" y="163.578943" style="fill: #e377c2; stroke: #e377c2"/>
     <use xlink:href="#me029851b70" x="934.848394" y="265.302478" style="fill: #e377c2; stroke: #e377c2"/>
     <use xlink:href="#me029851b70" x="1019.007898" y="295.667712" style="fill: #e377c2; stroke: #e377c2"/>
    </g>
   </g>
   <g id="line2d_38">
    <path d="M 93.253352 292.251623 
L 177.412856 204.572009 
L 261.572361 189.389392 
L 345.731865 266.061609 
L 429.891369 315.405114 
L 514.050873 307.43424 
L 598.210377 214.061145 
L 682.369881 128.279358 
L 766.529385 156.367199 
L 850.688889 275.550744 
L 934.848394 317.302941 
L 1019.007898 298.704235 
" clip-path="url(#p991746381f)" style="fill: none; stroke: #7f7f7f; stroke-width: 1.5; stroke-linecap: square"/>
    <defs>
     <path id="m18e6897749" d="M 0 3 
C 0.795609 3 1.55874 2.683901 2.12132 2.12132 
C 2.683901 1.55874 3 0.795609 3 0 
C 3 -0.795609 2.683901 -1.55874 2.12132 -2.12132 
C 1.55874 -2.683901 0.795609 -3 0 -3 
C -0.795609 -3 -1.55874 -2.683901 -2.12132 -2.12132 
C -2.683901 -1.55874 -3 -0.795609 -3 0 
C -3 0.795609 -2.683901 1.55874 -2.12132 2.12132 
C -1.55874 2.683901 -0.795609 3 0 3 
z
" style="stroke: #7f7f7f"/>
    </defs>
    <g clip-path="url(#p991746381f)">
     <use xlink:href="#m18e6897749" x="93.253352" y="292.251623" style="fill: #7f7f7f; stroke: #7f7f7f"/>
     <use xlink:href="#m18e6897749" x="177.412856" y="204.572009" style="fill: #7f7f7f; stroke: #7f7f7f"/>
     <use xlink:href="#m18e6897749" x="261.572361" y="189.389392" style="fill: #7f7f7f; stroke: #7f7f7f"/>
     <use xlink:href="#m18e6897749" x="345.731865" y="266.061609" style="fill: #7f7f7f; stroke: #7f7f7f"/>
     <use xlink:href="#m18e6897749" x="429.891369" y="315.405114" style="fill: #7f7f7f; stroke: #7f7f7f"/>
     <use xlink:href="#m18e6897749" x="514.050873" y="307.43424" style="fill: #7f7f7f; stroke: #7f7f7f"/>
     <use xlink:href="#m18e6897749" x="598.210377" y="214.061145" style="fill: #7f7f7f; stroke: #7f7f7f"/>
     <use xlink:href="#m18e6897749" x="682.369881" y="128.279358" style="fill: #7f7f7f; stroke: #7f7f7f"/>
     <use xlink:href="#m18e6897749" x="766.529385" y="156.367199" style="fill: #7f7f7f; stroke: #7f7f7f"/>
     <use xlink:href="#m18e6897749" x="850.688889" y="275.550744" style="fill: #7f7f7f; stroke: #7f7f7f"/>
     <use xlink:href="#m18e6897749" x="934.848394" y="317.302941" style="fill: #7f7f7f; stroke: #7f7f7f"/>
     <use xlink:href="#m18e6897749" x="1019.007898" y="298.704235" style="fill: #7f7f7f; stroke: #7f7f7f"/>
    </g>
   </g>
   <g id="patch_3">
    <path d="M 46.965625 347.630219 
L 46.965625 22.798125 
" style="fill: none; stroke: #000000; stroke-width: 0.8; stroke-linejoin: miter; stroke-linecap: square"/>
   </g>
   <g id="patch_4">
    <path d="M 1065.295625 347.630219 
L 1065.295625 22.798125 
" style="fill: none; stroke: #000000; stroke-width: 0.8; stroke-linejoin: miter; stroke-linecap: square"/>
   </g>
   <g id="patch_5">
    <path d="M 46.965625 347.630219 
L 1065.295625 347.630219 
" style="fill: none; stroke: #000000; stroke-width: 0.8; stroke-linejoin: miter; stroke-linecap: square"/>
   </g>
   <g id="patch_6">
    <path d="M 46.965625 22.798125 
L 1065.295625 22.798125 
" style="fill: none; stroke: #000000; stroke-width: 0.8; stroke-linejoin: miter; stroke-linecap: square"/>
   </g>
   <g id="text_18">
    <!-- Evolución Mensual de Incendios Reportados -->
    <g transform="translate(424.324687 16.798125) scale(0.12 -0.12)">
     <defs>
      <path id="DejaVuSans-f3" d="M 1959 3097 
Q 1497 3097 1228 2736 
Q 959 2375 959 1747 
Q 959 1119 1226 758 
Q 1494 397 1959 397 
Q 2419 397 2687 759 
Q 2956 1122 2956 1747 
Q 2956 2369 2687 2733 
Q 2419 3097 1959 3097 
z
M 1959 3584 
Q 2709 3584 3137 3096 
Q 3566 2609 3566 1747 
Q 3566 888 3137 398 
Q 2709 -91 1959 -91 
Q 1206 -91 779 398 
Q 353 888 353 1747 
Q 353 2609 779 3096 
Q 1206 3584 1959 3584 
z
M 2394 5119 
L 3016 5119 
L 1998 3944 
L 1519 3944 
L 2394 5119 
z
" transform="scale(0.015625)"/>
      <path id="DejaVuSans-52" d="M 2841 2188 
Q 3044 2119 3236 1894 
Q 3428 1669 3622 1275 
L 4263 0 
L 3584 0 
L 2988 1197 
Q 2756 1666 2539 1819 
Q 2322 1972 1947 1972 
L 1259 1972 
L 1259 0 
L 628 0 
L 628 4666 
L 2053 4666 
Q 2853 4666 3247 4331 
Q 3641 3997 3641 3322 
Q 3641 2881 3436 2590 
Q 3231 2300 2841 2188 
z
M 1259 4147 
L 1259 2491 
L 2053 2491 
Q 2509 2491 2742 2702 
Q 2975 2913 2975 3322 
Q 2975 3731 2742 3939 
Q 2509 4147 2053 4147 
L 1259 4147 
z
" transform="scale(0.015625)"/>
     </defs>
     <use xlink:href="#DejaVuSans-45"/>
     <use xlink:href="#DejaVuSans-76" transform="translate(63.183594 0)"/>
     <use xlink:href="#DejaVuSans-6f" transform="translate(122.363281 0)"/>
     <use xlink:href="#DejaVuSans-6c" transform="translate(183.544922 0)"/>
     <use xlink:href="#DejaVuSans-75" transform="translate(211.328125 0)"/>
     <use xlink:href="#DejaVuSans-63" transform="translate(274.707031 0)"/>
     <use xlink:href="#DejaVuSans-69" transform="translate(329.6875 0)"/>
     <use xlink:href="#DejaVuSans-f3" transform="translate(357.470703 0)"/>
     <use xlink:href="#DejaVuSans-6e" transform="translate(418.652344 0)"/>
     <use xlink:href="#DejaVuSans-20" transform="translate(482.03125 0)"/>
     <use xlink:href="#DejaVuSans-4d" transform="translate(513.818359 0)"/>
     <use xlink:href="#DejaVuSans-65" transform="translate(600.097656 0)"/>
     <use xlink:href="#DejaVuSans-6e" transform="translate(661.621094 0)"/>
     <use xlink:href="#DejaVuSans-73" transform="translate(725 0)"/>
     <use xlink:href="#DejaVuSans-75" transform="translate(777.099609 0)"/>
     <use xlink:href="#DejaVuSans-61" transform="translate(840.478516 0)"/>
     <use xlink:href="#DejaVuSans-6c" transform="translate(901.757812 0)"/>
     <use xlink:href="#DejaVuSans-20" transform="translate(929.541016 0)"/>
     <use xlink:href="#DejaVuSans-64" transform="translate(961.328125 0)"/>
     <use xlink:href="#DejaVuSans-65" transform="translate(1024.804688 0)"/>
     <use xlink:href="#DejaVuSans-20" transform="translate(1086.328125 0)"/>
     <use xlink:href="#DejaVuSans-49" transform="translate(1118.115234 0)"/>
     <use xlink:href="#DejaVuSans-6e" transform="translate(1147.607422 0)"/>
     <use xlink:href="#DejaVuSans-63" transform="translate(1210.986328 0)"/>
     <use xlink:href="#DejaVuSans-65" transform="translate(1265.966797 0)"/>
     <use xlink:href="#DejaVuSans-6e" transform="translate(1327.490234 0)"/>
     <use xlink:href="#DejaVuSans-64" transform="translate(1390.869141 0)"/>
     <use xlink:href="#DejaVuSans-69" transform="translate(1454.345703 0)"/>
     <use xlink:href="#DejaVuSans-6f" transform="translate(1482.128906 0)"/>
     <use xlink:href="#DejaVuSans-73" transform="translate(1543.310547 0)"/>
     <use xlink:href="#DejaVuSans-20" transform="translate(1595.410156 0)"/>
     <use xlink:href="#DejaVuSans-52" transform="translate(1627.197266 0)"/>
     <use xlink:href="#DejaVuSans-65" transform="translate(1692.179688 0)"/>
     <use xlink:href="#DejaVuSans-70" transform="translate(1753.703125 0)"/>
     <use xlink:href="#DejaVuSans-6f" transform="translate(1817.179688 0)"/>
     <use xlink:href="#DejaVuSans-72" transform="translate(1878.361328 0)"/>
     <use xlink:href="#DejaVuSans-74" transform="translate(1919.474609 0)"/>
     <use xlink:href="#DejaVuSans-61" transform="translate(1958.683594 0)"/>
     <use xlink:href="#DejaVuSans-64" transform="translate(2019.962891 0)"/>
     <use xlink:href="#DejaVuSans-6f" transform="translate(2083.439453 0)"/>
     <use xlink:href="#DejaVuSans-73" transform="translate(2144.621094 0)"/>
    </g>
   </g>
   <g id="legend_1">
    <g id="patch_7">
     <path d="M 1000.845625 162.90125 
L 1058.295625 162.90125 
Q 1060.295625 162.90125 1060.295625 160.90125 
L 1060.295625 29.798125 
Q 1060.295625 27.798125 1058.295625 27.798125 
L 1000.845625 27.798125 
Q 998.845625 27.798125 998.845625 29.798125 
L 998.845625 160.90125 
Q 998.845625 162.90125 1000.845625 162.90125 
z
" style="fill: #ffffff; opacity: 0.8; stroke: #cccccc; stroke-linejoin: miter"/>
    </g>
    <g id="text_19">
     <!-- Año -->
     <g transform="translate(1019.922187 39.396563) scale(0.1 -0.1)">
      <defs>
       <path id="DejaVuSans-41" d="M 2188 4044 
L 1331 1722 
L 3047 1722 
L 2188 4044 
z
M 1831 4666 
L 2547 4666 
L 4325 0 
L 3669 0 
L 3244 1197 
L 1141 1197 
L 716 0 
L 50 0 
L 1831 4666 
z
" transform="scale(0.015625)"/>
       <path id="DejaVuSans-f1" d="M 3513 2113 
L 3513 0 
L 2938 0 
L 2938 2094 
Q 2938 2591 2744 2837 
Q 2550 3084 2163 3084 
Q 1697 3084 1428 2787 
Q 1159 2491 1159 1978 
L 1159 0 
L 581 0 
L 581 3500 
L 1159 3500 
L 1159 2956 
Q 1366 3272 1645 3428 
Q 1925 3584 2291 3584 
Q 2894 3584 3203 3211 
Q 3513 2838 3513 2113 
z
M 2060 4281 
L 1881 4453 
Q 1813 4516 1761 4545 
Q 1710 4575 1669 4575 
Q 1550 4575 1494 4461 
Q 1438 4347 1431 4091 
L 1041 4091 
Q 1047 4513 1206 4742 
Q 1366 4972 1650 4972 
Q 1769 4972 1869 4928 
Q 1969 4884 2085 4781 
L 2263 4609 
Q 2331 4547 2383 4517 
Q 2435 4488 2475 4488 
Q 2594 4488 2650 4602 
Q 2706 4716 2713 4972 
L 3103 4972 
Q 3097 4550 2937 4320 
Q 2778 4091 2494 4091 
Q 2375 4091 2275 4134 
Q 2175 4178 2060 4281 
z
" transform="scale(0.015625)"/>
      </defs>
      <use xlink:href="#DejaVuSans-41"/>
      <use xlink:href="#DejaVuSans-f1" transform="translate(68.408203 0)"/>
      <use xlink:href="#DejaVuSans-6f" transform="translate(131.787109 0)"/>
     </g>
    </g>
    <g id="line2d_39">
     <path d="M 1002.845625 50.574688 
L 1012.845625 50.574688 
L 1022.845625 50.574688 
" style="fill: none; stroke: #1f77b4; stroke-width: 1.5; stroke-linecap: square"/>
     <g>
      <use xlink:href="#md4fed61024" x="1012.845625" y="50.574688" style="fill: #1f77b4; stroke: #1f77b4"/>
     </g>
    </g>
    <g id="text_20">
     <!-- 2017 -->
     <g transform="translate(1030.845625 54.074688) scale(0.1 -0.1)">
      <use xlink:href="#DejaVuSans-32"/>
      <use xlink:href="#DejaVuSans-30" transform="translate(63.623047 0)"/>
      <use xlink:href="#DejaVuSans-31" transform="translate(127.246094 0)"/>
      <use xlink:href="#DejaVuSans-37" transform="translate(190.869141 0)"/>
     </g>
    </g>
    <g id="line2d_40">
     <path d="M 1002.845625 65.252813 
L 1012.845625 65.252813 
L 1022.845625 65.252813 
" style="fill: none; stroke: #ff7f0e; stroke-width: 1.5; stroke-linecap: square"/>
     <g>
      <use xlink:href="#m6037c493b3" x="1012.845625" y="65.252813" style="fill: #ff7f0e; stroke: #ff7f0e"/>
     </g>
    </g>
    <g id="text_21">
     <!-- 2018 -->
     <g transform="translate(1030.845625 68.752813) scale(0.1 -0.1)">
      <use xlink:href="#DejaVuSans-32"/>
      <use xlink:href="#DejaVuSans-30" transform="translate(63.623047 0)"/>
      <use xlink:href="#DejaVuSans-31" transform="translate(127.246094 0)"/>
      <use xlink:href="#DejaVuSans-38" transform="translate(190.869141 0)"/>
     </g>
    </g>
    <g id="line2d_41">
     <path d="M 1002.845625 79.930938 
L 1012.845625 79.930938 
L 1022.845625 79.930938 
" style="fill: none; stroke: #2ca02c; stroke-width: 1.5; stroke-linecap: square"/>
     <g>
      <use xlink:href="#m34d3a4c8f8" x="1012.845625" y="79.930938" style="fill: #2ca02c; stroke: #2ca02c"/>
     </g>
    </g>
    <g id="text_22">
     <!-- 2019 -->
     <g transform="translate(1030.845625 83.430938) scale(0.1 -0.1)">
      <defs>
       <path id="DejaVuSans-39" d="M 703 97 
L 703 672 
Q 941 559 1184 500 
Q 1428 441 1663 441 
Q 2288 441 2617 861 
Q 2947 1281 2994 2138 
Q 2813 1869 2534 1725 
Q 2256 1581 1919 1581 
Q 1219 1581 811 2004 
Q 403 2428 403 3163 
Q 403 3881 828 4315 
Q 1253 4750 1959 4750 
Q 2769 4750 3195 4129 
Q 3622 3509 3622 2328 
Q 3622 1225 3098 567 
Q 2575 -91 1691 -91 
Q 1453 -91 1209 -44 
Q 966 3 703 97 
z
M 1959 2075 
Q 2384 2075 2632 2365 
Q 2881 2656 2881 3163 
Q 2881 3666 2632 3958 
Q 2384 4250 1959 4250 
Q 1534 4250 1286 3958 
Q 1038 3666 1038 3163 
Q 1038 2656 1286 2365 
Q 1534 2075 1959 2075 
z
" transform="scale(0.015625)"/>
      </defs>
      <use xlink:href="#DejaVuSans-32"/>
      <use xlink:href="#DejaVuSans-30" transform="translate(63.623047 0)"/>
      <use xlink:href="#DejaVuSans-31" transform="translate(127.246094 0)"/>
      <use xlink:href="#DejaVuSans-39" transform="translate(190.869141 0)"/>
     </g>
    </g>
    <g id="line2d_42">
     <path d="M 1002.845625 94.609063 
L 1012.845625 94.609063 
L 1022.845625 94.609063 
" style="fill: none; stroke: #d62728; stroke-width: 1.5; stroke-linecap: square"/>
     <g>
      <use xlink:href="#mccb326432c" x="1012.845625" y="94.609063" style="fill: #d62728; stroke: #d62728"/>
     </g>
    </g>
    <g id="text_23">
     <!-- 2020 -->
     <g transform="translate(1030.845625 98.109063) scale(0.1 -0.1)">
      <use xlink:href="#DejaVuSans-32"/>
      <use xlink:href="#DejaVuSans-30" transform="translate(63.623047 0)"/>
      <use xlink:href="#DejaVuSans-32" transform="translate(127.246094 0)"/>
      <use xlink:href="#DejaVuSans-30" transform="translate(190.869141 0)"/>
     </g>
    </g>
    <g id="line2d_43">
     <path d="M 1002.845625 109.287188 
L 1012.845625 109.287188 
L 1022.845625 109.287188 
" style="fill: none; stroke: #9467bd; stroke-width: 1.5; stroke-linecap: square"/>
     <g>
      <use xlink:href="#mf53223074b" x="1012.845625" y="109.287188" style="fill: #9467bd; stroke: #9467bd"/>
     </g>
    </g>
    <g id="text_24">
     <!-- 2021 -->
     <g transform="translate(1030.845625 112.787188) scale(0.1 -0.1)">
      <use xlink:href="#DejaVuSans-32"/>
      <use xlink:href="#DejaVuSans-30" transform="translate(63.623047 0)"/>
      <use xlink:href="#DejaVuSans-32" transform="translate(127.246094 0)"/>
      <use xlink:href="#DejaVuSans-31" transform="translate(190.869141 0)"/>
     </g>
    </g>
    <g id="line2d_44">
     <path d="M 1002.845625 123.965313 
L 1012.845625 123.965313 
L 1022.845625 123.965313 
" style="fill: none; stroke: #8c564b; stroke-width: 1.5; stroke-linecap: square"/>
     <g>
      <use xlink:href="#mac4eca02d7" x="1012.845625" y="123.965313" style="fill: #8c564b; stroke: #8c564b"/>
     </g>
    </g>
    <g id="text_25">
     <!-- 2022 -->
     <g transform="translate(1030.845625 127.465313) scale(0.1 -0.1)">
      <use xlink:href="#DejaVuSans-32"/>
      <use xlink:href="#DejaVuSans-30" transform="translate(63.623047 0)"/>
      <use xlink:href="#DejaVuSans-32" transform="translate(127.246094 0)"/>
      <use xlink:href="#DejaVuSans-32" transform="translate(190.869141 0)"/>
     </g>
    </g>
    <g id="line2d_45">
     <path d="M 1002.845625 138.643438 
L 1012.845625 138.643438 
L 1022.845625 138.643438 
" style="fill: none; stroke: #e377c2; stroke-width: 1.5; stroke-linecap: square"/>
     <g>
      <use xlink:href="#me029851b70" x="1012.845625" y="138.643438" style="fill: #e377c2; stroke: #e377c2"/>
     </g>
    </g>
    <g id="text_26">
     <!-- 2023 -->
     <g transform="translate(1030.845625 142.143438) scale(0.1 -0.1)">
      <use xlink:href="#DejaVuSans-32"/>
      <use xlink:href="#DejaVuSans-30" transform="translate(63.623047 0)"/>
      <use xlink:href="#DejaVuSans-32" transform="translate(127.246094 0)"/>
      <use xlink:href="#DejaVuSans-33" transform="translate(190.869141 0)"/>
     </g>
    </g>
    <g id="line2d_46">
     <path d="M 1002.845625 153.321563 
L 1012.845625 153.321563 
L 1022.845625 153.321563 
" style="fill: none; stroke: #7f7f7f; stroke-width: 1.5; stroke-linecap: square"/>
     <g>
      <use xlink:href="#m18e6897749" x="1012.845625" y="153.321563" style="fill: #7f7f7f; stroke: #7f7f7f"/>
     </g>
    </g>
    <g id="text_27">
     <!-- 2024 -->
     <g transform="translate(1030.845625 156.821563) scale(0.1 -0.1)">
      <use xlink:href="#DejaVuSans-32"/>
      <use xlink:href="#DejaVuSans-30" transform="translate(63.623047 0)"/>
      <use xlink:href="#DejaVuSans-32" transform="translate(127.246094 0)"/>
      <use xlink:href="#DejaVuSans-34" transform="translate(190.869141 0)"/>
     </g>
    </g>
   </g>
  </g>
 </g>
 <defs>
  <clipPath id="p991746381f">
   <rect x="46.965625" y="22.798125" width="1018.33" height="324.832094"/>
  </clipPath>
 </defs>
</svg>
